<svg width="600" height="400" viewBox="0 0 600 400" xmlns="http://www.w3.org/2000/svg">
  <style>
    .sky {
    fill: url(#skyGradient);
    }

    .mountain {
    fill: #777;
    stroke: #555;
    stroke-width: 2;
    stroke-linejoin: round;
    }

    .sun {
    fill: #ffcc00;
    stroke: #ff9900;
    stroke-width: 3;
    }

    .cloud {
    fill: white;
    stroke: lightgray;
    stroke-width: 2;
    opacity: 0.8;
    }
    .cloud-shadow{
    fill: rgba(0,0,0,0.2);
    transform: translate(5,5);
    }

  </style>

  <defs>
    <linearGradient id="skyGradient" x1="0%" y1="0%" x2="0%" y2="100%">
      <stop offset="0%" stop-color="#87CEEB" />
      <stop offset="100%" stop-color="#ADD8E6" />
    </linearGradient>
  </defs>

  <rect x="0" y="0" width="600" height="400" class="sky" />

  <path class="mountain" d="M 50 300 L 150 150 L 250 250 L 350 100 L 450 200 L 550 300Z" />

  <circle cx="500" cy="70" r="50" class="sun" />

  <g transform="translate(100, 100)">
    <ellipse cx="50" cy="25" rx="50" ry="25" class="cloud"/>
    <ellipse cx="60" cy="15" rx="40" ry="20" class="cloud"/>
    <ellipse cx="30" cy="15" rx="30" ry="15" class="cloud"/>
    <ellipse cx="50" cy="25" rx="50" ry="25" class="cloud-shadow"/>
  </g>

  <g transform="translate(300, 50)">
    <ellipse cx="50" cy="25" rx="50" ry="25" class="cloud"/>
    <ellipse cx="60" cy="15" rx="40" ry="20" class="cloud"/>
    <ellipse cx="30" cy="15" rx="30" ry="15" class="cloud"/>
    <ellipse cx="50" cy="25" rx="50" ry="25" class="cloud-shadow"/>
  </g>

</svg>
