<svg xmlns="http://www.w3.org/2000/svg" width="150" height="150" fill="none" viewBox="0 0 150 150">
  <title>S2C - SVG to Compose</title>
  <!-- Three isometric faces filling the hexagon -->
  <path fill="#c1c1c1" d="M73.94 3.25 L138.44 37.1 L73.94 74.22 L9.44 37.1 Z"/>
  <path fill="#a8a8a8" d="M9.44 37.1 L73.94 74.22 L73.94 145.18 L9.44 111.33 Z"/>
  <path fill="#737373" d="M138.44 37.1 L138.44 111.33 L73.94 145.18 L73.94 74.22 Z"/>
  <!-- Depth: darker shade overlays -->
  <path fill="#9e9e9e" d="M74.15 33 L37.5 53.31 L53.81 61.71 L74.26 50.83 Z"/>
  <path fill="#9e9e9e" d="M109.8 53.32 L74.15 33 L74.26 50.85 L95.01 61.72 Z"/>
  <path fill="#838383" d="M37.5 53.32 L53.81 61.7 L53.81 134.62 L37.5 126.06 Z"/>
  <path fill="#656565" d="M109.8 53.32 L95 61.7 L95 134.13 L109.8 126.36 Z"/>
  <!-- Box interior -->
  <path fill="#161616" d="M74.26 50.83 L53.81 61.71 L53.81 134.62 L73.94 145.18 L95 134.13 L95 61.72 Z"/>
  <!-- Banner with S2C text -->
  <path fill="#161616" d="M139.44 83.56H10.56C4.73 83.56 0 88 0 93.48v20.54c.02 1.57.57 3.1 1.6 4.45a10.6 10.6 0 0 0 4.24 3.21l60.92 26.6a22 22 0 0 0 8.68 1.72c3.04-.03 6.03-.66 8.67-1.85l57.36-26.19c5.34-2.44 8.6-6.87 8.53-11.67V93.48c0-5.48-4.73-9.92-10.56-9.92"/>
  <path fill="#fff" d="M106.96 125.88q-6.6 0-10.45-3.43-3.85-3.48-3.85-9.9v-8q0-6.42 3.85-9.85 3.85-3.47 10.45-3.47 6.54 0 10.09 3.38 3.6 3.33 3.6 9.18v.29h-6.6v-.48q0-2.95-1.77-4.85-1.72-1.9-5.32-1.9-3.56 0-5.58 2.04t-2.03 5.57v8.19q0 3.47 2.03 5.56 2.02 2.05 5.58 2.05 3.6 0 5.32-1.9a7 7 0 0 0 1.78-4.86v-.86h6.59v.67q0 5.85-3.6 9.23-3.55 3.34-10.1 3.34m-45.82-.67v-4q0-3.46 1.22-5.76a10 10 0 0 1 3.5-3.8 21 21 0 0 1 5.68-2.48l3.4-1q1.88-.57 3.14-1.38a6 6 0 0 0 1.93-2.05q.7-1.2.7-2.7v-.2q0-2.38-1.72-3.76-1.72-1.43-4.71-1.43a7.2 7.2 0 0 0-4.77 1.53q-1.77 1.47-1.77 4.28v.86h-6.5v-.77q0-3.6 1.73-6.14a11 11 0 0 1 4.66-3.85q3-1.33 6.65-1.33t6.59 1.33q2.94 1.29 4.61 3.66a9 9 0 0 1 1.73 5.53v.47a9.9 9.9 0 0 1-5.18 9.04q-2.38 1.39-5.42 2.29l-3.25.95q-2.17.62-3.4 1.38a4.5 4.5 0 0 0-1.72 1.62q-.45.85-.45 2.1v.18h19.11v5.43zm-18.22.67q-4.1 0-7.25-1.38a11.4 11.4 0 0 1-4.92-3.95 10.6 10.6 0 0 1-1.77-6.2v-1.32h6.59v1.33q0 3 1.98 4.52 1.97 1.47 5.37 1.48 3.44 0 5.12-1.29a4 4 0 0 0 1.73-3.28q0-1.38-.87-2.24a6 6 0 0 0-2.43-1.38 28 28 0 0 0-3.85-1.05l-1.17-.24a33 33 0 0 1-6.29-1.9 10 10 0 0 1-4-3.1 8.3 8.3 0 0 1-1.37-4.94q0-3.04 1.52-5.2a10 10 0 0 1 4.36-3.32q2.84-1.2 6.64-1.2 3.81 0 6.75 1.24 2.99 1.2 4.66 3.62a10 10 0 0 1 1.72 6v1.43h-6.59v-1.43q0-1.9-.8-3.05a4.2 4.2 0 0 0-2.24-1.71 10 10 0 0 0-3.5-.57q-3.04 0-4.51 1.1a3.4 3.4 0 0 0-1.42 2.9q0 1.23.66 2.09a5 5 0 0 0 2.08 1.43q1.37.57 3.5 1l1.16.23q3.8.76 6.6 1.96 2.84 1.19 4.4 3.14a7.7 7.7 0 0 1 1.58 5q0 3.05-1.68 5.37a11 11 0 0 1-4.66 3.62 18 18 0 0 1-7.1 1.29"/>
</svg>
