<svg xmlns="http://www.w3.org/2000/svg" width="150" height="150" fill="none" viewBox="0 0 150 150"><title>S2C - SVG to Compose</title><path fill="#37bf6e" d="M9.44 111.33H37.5v-58L9.44 37.1z"></path><path fill="#2c9556" d="M37.5 111.33h16.31V61.7L37.5 53.32z"></path><path fill="#ffb13b" d="M73.94 3.25 9.44 37.1 37.5 53.32 74.15 33zm64.5 33.85L73.94 3.25l.21 29.74 35.64 20.33z"></path><path fill="#d09236" d="M109.8 53.32 74.15 33l.11 17.85 20.75 10.87z"></path><path fill="#d09236" d="M74.15 33 37.5 53.31l16.31 8.4 20.45-10.88z"></path><path fill="#5e4ce3" d="M95 111.33h14.8v-58L95 61.7z"></path><path fill="#6b57ff" d="M138.44 111.33V37.1L109.8 53.32v58z"></path><path fill="#181424" d="M65.22 2.14c5.41-2.84 12-2.86 17.43-.05l52.63 27.23c5.8 3 9.36 8.75 9.28 14.96l-.7 55.35c-.1 9.23-8.11 16.66-17.95 16.66H22.12c-9.92 0-17.96-7.55-17.96-16.86V44.08c0-6.1 3.52-11.74 9.2-14.71zm-50.5 97.29c0 3.83 3.32 6.94 7.4 6.94h103.8c4.04 0 7.34-3.06 7.39-6.86l.7-55.35a6.9 6.9 0 0 0-3.83-6.16L77.55 10.78a7.8 7.8 0 0 0-7.17.02L18.5 38.02a6.9 6.9 0 0 0-3.78 6.06z"></path><path fill="#181424" d="M139.44 83.56H10.56C4.73 83.56 0 88 0 93.48v20.54c.02 1.57.57 3.1 1.6 4.45a10.6 10.6 0 0 0 4.24 3.21l60.92 26.6a22 22 0 0 0 8.68 1.72c3.04-.03 6.03-.66 8.67-1.85l57.36-26.19c5.34-2.44 8.6-6.87 8.53-11.67V93.48c0-5.48-4.73-9.92-10.56-9.92"></path><path fill="#fff" d="M106.96 125.88q-6.6 0-10.45-3.43-3.85-3.48-3.85-9.9v-8q0-6.42 3.85-9.85 3.85-3.47 10.45-3.47 6.54 0 10.09 3.38 3.6 3.33 3.6 9.18v.29h-6.6v-.48q0-2.95-1.77-4.85-1.72-1.9-5.32-1.9-3.56 0-5.58 2.04t-2.03 5.57v8.19q0 3.47 2.03 5.56 2.02 2.05 5.58 2.05 3.6 0 5.32-1.9a7 7 0 0 0 1.78-4.86v-.86h6.59v.67q0 5.85-3.6 9.23-3.55 3.34-10.1 3.34m-45.82-.67v-4q0-3.46 1.22-5.76a10 10 0 0 1 3.5-3.8 21 21 0 0 1 5.68-2.48l3.4-1q1.88-.57 3.14-1.38a6 6 0 0 0 1.93-2.05q.7-1.2.7-2.7v-.2q0-2.38-1.72-3.76-1.72-1.43-4.71-1.43a7.2 7.2 0 0 0-4.77 1.53q-1.77 1.47-1.77 4.28v.86h-6.5v-.77q0-3.6 1.73-6.14a11 11 0 0 1 4.66-3.85q3-1.33 6.65-1.33t6.59 1.33q2.94 1.29 4.61 3.66a9 9 0 0 1 1.73 5.53v.47a9.9 9.9 0 0 1-5.18 9.04q-2.38 1.39-5.42 2.29l-3.25.95q-2.17.62-3.4 1.38a4.5 4.5 0 0 0-1.72 1.62q-.45.85-.45 2.1v.18h19.11v5.43zm-18.22.67q-4.1 0-7.25-1.38a11.4 11.4 0 0 1-4.92-3.95 10.6 10.6 0 0 1-1.77-6.2v-1.32h6.59v1.33q0 3 1.98 4.52 1.97 1.47 5.37 1.48 3.44 0 5.12-1.29a4 4 0 0 0 1.73-3.28q0-1.38-.87-2.24a6 6 0 0 0-2.43-1.38 28 28 0 0 0-3.85-1.05l-1.17-.24a33 33 0 0 1-6.29-1.9 10 10 0 0 1-4-3.1 8.3 8.3 0 0 1-1.37-4.94q0-3.04 1.52-5.2a10 10 0 0 1 4.36-3.32q2.84-1.2 6.64-1.2 3.81 0 6.75 1.24 2.99 1.2 4.66 3.62a10 10 0 0 1 1.72 6v1.43h-6.59v-1.43q0-1.9-.8-3.05a4.2 4.2 0 0 0-2.24-1.71 10 10 0 0 0-3.5-.57q-3.04 0-4.51 1.1a3.4 3.4 0 0 0-1.42 2.9q0 1.23.66 2.09a5 5 0 0 0 2.08 1.43q1.37.57 3.5 1l1.16.23q3.8.76 6.6 1.96 2.84 1.19 4.4 3.14a7.7 7.7 0 0 1 1.58 5q0 3.05-1.68 5.37a11 11 0 0 1-4.66 3.62 18 18 0 0 1-7.1 1.29"></path></svg>