<svg width="116" height="114" viewBox="0 0 116 114" fill="none" xmlns="http://www.w3.org/2000/svg">
<path d="M56.785 113.121C53.7674 113.121 50.7163 112.872 47.716 112.381C47.5567 112.359 47.4002 112.332 47.2431 112.305L47.0574 112.274C42.0155 111.39 37.1832 109.855 32.6487 107.702C31.7297 107.27 30.8276 106.814 29.9791 106.353C29.7722 106.246 29.566 106.133 29.3596 106.013C28.2939 105.42 27.2237 104.777 26.178 104.099C23.9793 102.672 21.8738 101.083 19.9093 99.3692C17.6554 98.3258 15.7883 97.1586 14.2153 95.8097C11.5794 93.5505 9.78111 90.7759 9.01462 87.7875C8.90055 87.3432 8.87863 86.8864 8.94336 86.4438C8.61585 85.9141 8.2987 85.3804 7.99192 84.8448C5.26917 83.6939 3.59826 80.611 4.05247 77.4088C4.08367 77.1891 4.12437 76.9683 4.17544 76.7475C3.87854 75.962 3.60458 75.1858 3.35831 74.4307C2.94098 73.1604 2.56542 71.8557 2.23775 70.5396C1.55288 69.9652 1.01284 69.2797 0.624817 68.4915C-0.291584 66.6281 -0.180489 64.4137 0.850678 62.5087C0.355338 57.477 0.550808 52.3703 1.43433 47.3089C6.15675 20.4043 29.3741 0.878413 56.6409 0.878413C59.8906 0.878413 63.1743 1.1656 66.3998 1.73133C92.4213 6.29714 111.623 28.297 112.765 54.4643C115.562 56.4567 116.613 60.1032 115.206 62.9632C114.726 63.9397 113.814 65.129 112.089 65.983C112.051 66.2102 112.013 66.4451 111.97 66.6885C111.778 67.7914 111.548 68.9056 111.284 70.0149C111.524 70.6324 111.69 71.2559 111.778 71.881C112.206 74.9007 110.744 77.8154 108.292 79.1022C106.876 82.4205 105.137 85.5951 103.097 88.5858C103.936 88.8336 104.751 89.1181 105.556 89.3993L106.317 89.6633C107.286 89.9969 108.056 90.7472 108.412 91.7088C108.768 92.6701 108.674 93.7411 108.156 94.6248C106.595 97.2873 104.103 99.4583 100.946 100.904C98.5834 101.987 95.8206 102.678 92.5001 103.015C92.0375 103.062 91.5689 103.103 91.0987 103.144C90.0526 103.235 89.0528 103.323 88.1292 103.479C87.8128 103.694 87.496 103.905 87.1759 104.112C87.0096 104.22 86.8428 104.324 86.6754 104.429L86.6053 104.473C86.1383 104.768 85.6644 105.057 85.1861 105.339L85.172 105.347C84.9486 105.486 84.7245 105.619 84.5005 105.746L84.3461 105.83C83.8139 106.132 83.2681 106.427 82.718 106.716C82.5723 106.792 82.4233 106.867 82.2737 106.942L82.1015 107.029C81.687 107.24 81.267 107.448 80.8432 107.65C80.6305 107.752 80.4124 107.853 80.1938 107.955C79.7576 108.156 79.3188 108.351 78.8772 108.541C78.8772 108.541 78.4356 108.733 78.2904 108.793C77.6599 109.056 77.0245 109.311 76.3827 109.552C75.3343 109.941 74.4204 110.254 73.5729 110.517C68.1542 112.242 62.4979 113.121 56.785 113.121Z" fill="#CCB0AB"/>
<path d="M109.703 56.8249C109.72 59.104 109.589 61.4058 109.298 63.7184C109.196 64.6015 109.059 65.4852 108.905 66.3738C108.655 67.8151 108.341 69.2397 107.977 70.6297C107.441 72.6918 106.791 74.692 106.023 76.6347C104.136 81.4374 101.573 85.8525 98.4791 89.7896C97.9663 90.4448 97.4367 91.089 96.8899 91.7157C94.0526 95.0032 90.8164 97.9139 87.2778 100.398C87.2158 100.444 87.1585 100.484 87.0959 100.523L87.09 100.529C85.979 101.304 84.8395 102.033 83.6718 102.711C83.4894 102.825 83.3069 102.934 83.125 103.036C80.6861 104.426 78.1284 105.629 75.4849 106.62C74.6244 106.939 73.7467 107.246 72.8641 107.52C65.2407 109.947 56.9512 110.654 48.5305 109.269C48.3195 109.241 48.1149 109.2 47.9038 109.166C43.1237 108.329 38.6057 106.871 34.4181 104.882C33.558 104.478 32.7093 104.05 31.8831 103.6C31.7066 103.508 31.5299 103.413 31.353 103.309C30.3277 102.74 29.325 102.136 28.3393 101.498C26.1287 100.062 24.0435 98.4721 22.0893 96.735L22.0722 96.7236C18.8702 93.8803 16.0271 90.662 13.6175 87.1519C12.5119 85.5508 11.4922 83.8877 10.5749 82.1727C9.65214 80.4571 8.82594 78.6974 8.09675 76.8852C7.66932 75.8194 7.27061 74.7373 6.91147 73.6376C6.38179 72.0257 5.93158 70.3846 5.56132 68.7209V68.715C5.191 67.0518 4.89475 65.3594 4.68956 63.6504C4.07449 58.6198 4.18812 53.4181 5.1056 48.1651C10.1363 19.5017 37.4492 0.335866 66.1125 5.367C91.5737 9.83347 109.526 31.8706 109.703 56.8249Z" fill="#FFCE86"/>
<path d="M39.0498 62.752C39.0498 62.752 45.8869 49.006 46.6626 47.3573C47.4383 45.7087 48.3231 44.1087 49.6807 44.0121C51.0384 43.9149 52.2994 44.4115 52.8813 45.2844C53.4627 46.1573 54.0814 47.0421 54.0814 47.0421L39.0498 62.752Z" fill="#7E5C63"/>
<path d="M87.2776 100.398C83.6429 102.95 79.6774 105.047 75.4846 106.62C74.6241 106.939 73.7464 107.246 72.8638 107.52C65.2404 109.947 56.9509 110.654 48.5302 109.269C44.0918 105.537 39.6366 100.945 39.0896 97.088C38.9931 96.3991 38.8847 95.618 38.7708 94.7634C38.3263 91.4026 37.808 86.9469 37.5174 82.7195C37.1585 77.5579 37.13 72.7204 37.9503 70.5898L37.956 70.5671C38.0984 70.214 38.2582 69.9344 38.4461 69.7466L38.4746 69.7185C38.5315 69.6607 38.5941 69.6154 38.6569 69.5754L38.6454 69.5242V69.5188C38.6169 69.4162 38.56 69.1711 38.4975 68.8407L38.4916 68.8062C38.3436 68.0774 38.1555 66.9433 38.1441 65.8895C38.1441 65.8096 38.1498 65.7244 38.1498 65.6445C38.1555 65.0291 38.2352 64.4542 38.429 64.0266L38.4461 63.9867C38.5884 63.679 38.9931 63.0463 39.5856 62.1918C40.0982 61.4457 40.7595 60.5399 41.5169 59.5369C41.5622 59.4803 41.614 59.4176 41.6594 59.3545C42.9355 57.6794 44.4794 55.7711 46.0859 53.9649C46.2117 53.8224 46.3369 53.6804 46.4562 53.5433C47.1003 52.8307 47.7497 52.1419 48.3937 51.4925C50.3818 49.4984 52.3133 47.8914 53.8232 47.3165C54.3414 47.1113 54.8089 47.0309 55.2132 47.0941C55.2818 47.0995 55.3498 47.1173 55.4184 47.1399C55.4923 47.1567 55.5663 47.1907 55.6348 47.2252C56.0224 47.4185 56.3188 47.6862 56.5293 48.0226L56.5466 48.0398C56.843 48.4954 56.9909 49.0655 57.0195 49.7149C57.1048 51.3613 56.444 53.5088 55.5323 55.5374C55.447 55.7139 55.3671 55.8964 55.2759 56.0729C54.2162 58.2894 52.8888 60.2835 51.977 61.1953L51.8631 61.3146C49.761 63.4792 49.6299 65.3481 49.6185 65.5818V65.5991V65.6051C49.6185 65.6051 51.618 65.1203 54.3474 64.5789L54.4613 64.5562C55.9425 64.2598 57.6349 63.9521 59.3326 63.6957C62.1753 63.2633 65.0466 62.967 67.024 63.1262C70.9722 63.4458 72.955 66.2026 73.7237 67.6326C74.0033 68.1514 74.1226 68.499 74.1226 68.499L87.2776 100.398Z" fill="#7E5C63"/>
<path d="M55.4702 48.6633C55.2807 48.9979 54.9838 49.263 54.6934 49.5156C53.7276 50.3556 52.7171 51.1443 51.6693 51.8768C50.811 52.4766 49.9268 52.9818 48.9356 52.2871C48.6074 52.0533 48.4368 51.7818 48.3926 51.4914C51.0631 48.8085 53.6326 46.8387 55.2111 47.0913C55.3817 47.2052 55.5204 47.3628 55.6024 47.5518C55.7476 47.9118 55.6656 48.3286 55.4702 48.6633Z" fill="#FF91B8"/>
<path d="M75.5153 72.1555L63.4762 78.4941L60.4705 65.2804C60.4705 65.2804 55.4199 58.8279 55.4199 54.3144C55.4199 49.7999 58.3177 48.4045 59.9339 48.4045C60.016 48.4045 60.098 48.4174 60.1865 48.4428C61.7083 48.8909 63.2106 53.2094 64.2336 54.6356C64.3221 54.756 64.429 54.8947 64.5488 55.04C65.9697 56.6815 69.6442 59.7245 71.3236 62.591C73.1482 65.7095 75.5153 72.1555 75.5153 72.1555Z" fill="#7E5C63"/>
<path d="M68.1413 65.268C67.826 66.3034 66.639 66.7703 65.5847 66.9852C64.3091 67.2443 63.0022 67.3323 61.7082 67.2443C60.919 67.1935 60.0791 67.0543 59.5112 66.4988C58.8483 65.8488 58.7851 64.8388 59.0437 63.9168C62.2826 63.5573 65.2311 63.3991 66.544 63.5319C67.2387 63.601 67.7877 63.9546 68.1796 64.4788C68.2298 64.7373 68.2239 65.0089 68.1413 65.268Z" fill="#FF91B8"/>
<path d="M72.9708 76.8474V76.8533C72.845 77.289 72.5352 77.6808 72.1567 77.9393C71.5948 78.3248 70.9065 78.47 70.2307 78.5521C68.9999 78.7098 67.7496 78.6908 66.5253 78.5012C66.0643 78.4258 65.5779 78.3123 65.2686 77.9648C64.9971 77.662 64.915 77.2388 64.915 76.8284C64.915 76.3042 65.0538 75.5529 65.3885 75.0038C69.2714 75.1803 72.3775 75.8055 72.9708 76.8474Z" fill="#FF91B8"/>
<path d="M38.8054 69.4233C38.8052 69.4233 38.7744 69.3207 38.7268 69.1361C38.5838 68.5822 38.2977 67.3029 38.2981 66.0008C38.2972 65.075 38.4445 64.1417 38.8693 63.4534C40.1428 61.381 45.7936 54.196 48.9197 51.153C50.2493 49.8569 51.4186 48.8378 52.4032 48.1468C53.3868 47.4542 54.19 47.099 54.7482 47.1028C54.9474 47.1028 55.1147 47.1449 55.2594 47.2275C55.7274 47.4941 56.1982 47.8267 56.5507 48.2963C56.9026 48.766 57.1423 49.3722 57.1434 50.217C57.1434 50.5279 57.1105 50.8713 57.0365 51.2513C56.5658 53.7015 54.3941 57.6541 52.5517 60.1335C51.627 61.3805 50.9009 62.2734 50.3789 63.0912C49.8574 63.9079 49.5405 64.6583 49.4585 65.5868C49.4504 65.6731 49.5146 65.7503 49.6015 65.7579C49.6885 65.7655 49.7651 65.7018 49.7727 65.6148C49.8515 64.7436 50.1392 64.0564 50.6456 63.2612C51.1514 62.4672 51.8758 61.5737 52.8048 60.3219C54.6699 57.8042 56.8503 53.8586 57.3469 51.3112C57.4236 50.9139 57.4592 50.5506 57.4592 50.217C57.4597 49.3117 57.1947 48.6267 56.8033 48.1068C56.4119 47.5865 55.9018 47.2307 55.416 46.9532C55.2189 46.8404 54.9922 46.7864 54.7482 46.787C54.0632 46.7902 53.2308 47.1832 52.2218 47.8887C51.2151 48.5954 50.0366 49.6237 48.6995 50.9269C45.5383 54.0082 39.9062 61.1694 38.6005 63.2882C38.1283 64.0575 37.9833 65.0437 37.9824 66.0008C37.9831 67.7963 38.5014 69.507 38.5032 69.5145C38.5283 69.5982 38.6165 69.6451 38.7 69.6203C38.7833 69.5949 38.8305 69.507 38.8054 69.4233Z" fill="#111528"/>
<path d="M50.2546 76.6584L50.0969 74.7199L49.9393 74.733L49.9749 74.8867C49.9755 74.8863 50.2821 74.8165 50.7987 74.6984C52.348 74.3442 55.7786 73.561 58.4345 72.9553C60.1965 72.5536 62.2726 72.3118 64.0977 71.8967C65.9207 71.4783 67.5094 70.898 68.2851 69.7444C68.8223 68.9374 69.0792 67.9403 69.0792 66.9757C69.0787 66.0078 68.8212 65.069 68.3051 64.3845L68.3057 64.3856C67.8938 63.8317 67.3 63.4485 66.5593 63.3761H66.5599C66.2403 63.3437 65.8333 63.3286 65.3528 63.3286C63.8073 63.3286 61.5023 63.4863 59.0261 63.761H59.0256C56.2936 64.0709 53.3666 64.5195 51.0335 65.0712H51.033C45.943 66.2858 41.7448 67.6558 39.1489 68.9541C38.2432 69.4097 37.7118 70.4505 37.3922 71.7515C37.0733 73.0557 36.969 74.639 36.9688 76.2248C36.9688 77.9464 37.0927 79.6706 37.2062 81.0337C37.5284 84.9101 38.9804 98.1277 38.9804 98.1287C38.9899 98.2156 39.068 98.2783 39.1546 98.2685C39.2413 98.2588 39.3037 98.181 39.2942 98.0942C39.294 98.092 39.2035 97.2682 39.0622 95.9684C38.6388 92.0697 37.7616 83.9061 37.5206 81.0078C37.4076 79.6479 37.2844 77.9319 37.2844 76.2248C37.2842 74.6535 37.3894 73.0891 37.6987 71.8265C38.007 70.5606 38.5218 69.6154 39.29 69.2364C41.8458 67.9576 46.0315 66.5886 51.1064 65.3783H51.1059C53.4195 64.8315 56.3384 64.3834 59.0612 64.0747H59.0607C61.5282 63.801 63.8273 63.6444 65.3528 63.6444C65.8263 63.6444 66.2252 63.6595 66.528 63.6903C67.1769 63.7556 67.6816 64.0801 68.0525 64.5745L68.053 64.5751C68.5167 65.1867 68.7645 66.0634 68.764 66.9757C68.764 67.8847 68.5189 68.8251 68.0222 69.569C67.3464 70.5935 65.8317 71.1814 64.0276 71.589C62.2262 71.9992 60.1506 72.2411 58.3643 72.6476C54.8225 73.4551 49.9042 74.579 49.9042 74.579C49.8276 74.5963 49.7757 74.667 49.7822 74.7452L49.9398 76.6837C49.9474 76.7706 50.0235 76.8355 50.1104 76.8284C50.1973 76.8214 50.2616 76.7453 50.2546 76.6584Z" fill="#111528"/>
<path d="M53.9602 91.3346L56.1573 84.617L56.0072 84.5678L56.024 84.7249C56.0245 84.7249 59.2732 84.3778 62.7345 83.9519C64.4652 83.7393 66.2487 83.5072 67.7073 83.2885C69.1692 83.0683 70.2904 82.8684 70.7471 82.7016C71.7565 82.3276 72.4054 81.5319 72.7962 80.6547C73.1881 79.7759 73.3301 78.8097 73.3307 78.0474C73.3301 77.5847 73.2794 77.201 73.1898 76.9401L73.1817 76.9218L73.112 76.7826L72.9711 76.8528H73.1288V76.8469L73.1083 76.7685C72.9323 76.4625 72.6003 76.2175 72.1501 76.0015C70.8005 75.3597 68.32 74.9801 65.3958 74.8458H65.3974C64.6314 74.8046 63.8298 74.7846 63.0147 74.7846C62.8106 74.7846 62.606 74.7859 62.4009 74.7885C57.0275 74.8472 53.2455 74.998 50.4039 76.4733C49.6562 76.8653 48.8012 77.8298 47.9013 79.0644C45.213 82.7649 42.2245 88.9016 42.2218 88.9054C42.184 88.9842 42.2164 89.0787 42.2947 89.1164C42.373 89.1548 42.4674 89.1224 42.5058 89.0442C42.5058 89.0435 42.5884 88.8746 42.739 88.5739C43.2658 87.5219 44.6224 84.8696 46.1506 82.3255C46.9145 81.0537 47.7215 79.8088 48.487 78.8063C49.2498 77.8045 49.9807 77.0456 50.5491 76.7535C53.2887 75.3244 57.0329 75.1594 62.4041 75.1043H62.4047C62.6087 75.1015 62.8117 75.1005 63.0147 75.1005C63.8244 75.1005 64.6206 75.1206 65.3807 75.161H65.3818C67.3165 75.249 69.0564 75.4487 70.3778 75.7542C71.0386 75.9071 71.5946 76.0857 72.014 76.2865C72.4346 76.4864 72.7136 76.7096 72.834 76.9245L72.9711 76.8469H72.8135V76.8528L72.8297 76.9234L72.8993 77.0628L73.0408 76.992L72.8918 77.0439C72.963 77.247 73.0154 77.6107 73.0149 78.0474C73.0154 78.7702 72.8767 79.7008 72.508 80.5264C72.1382 81.3527 71.5471 82.068 70.6375 82.4058C70.2477 82.5517 69.1109 82.76 67.6604 82.976C65.48 83.303 62.5612 83.6621 60.1892 83.939C59.0027 84.0772 57.9533 84.1954 57.1997 84.2792C56.4467 84.3622 55.9916 84.4108 55.9905 84.4114C55.929 84.4179 55.8761 84.4605 55.8572 84.5193L53.6601 91.2363C53.6331 91.319 53.6779 91.408 53.7611 91.4356C53.8436 91.4625 53.9333 91.4173 53.9602 91.3346Z" fill="#111528"/>
<path d="M54.293 89.5018C55.0585 90.3122 55.8234 91.123 56.5889 91.9331C56.6488 91.9964 56.7486 91.9991 56.8118 91.9392C56.8755 91.8791 56.8782 91.7794 56.8183 91.7161C56.0528 90.906 55.2879 90.0952 54.5224 89.2848C54.4625 89.2218 54.3626 89.2184 54.2995 89.2783C54.2363 89.3382 54.2331 89.4381 54.293 89.5018Z" fill="#111528"/>
<path d="M64.5483 55.04C64.2767 55.3245 63.867 55.4692 63.4692 55.4627C63.0082 55.4503 62.5666 55.2549 62.2001 54.9768C61.6003 54.5223 61.19 53.8653 60.8554 53.19C60.546 52.5838 60.281 51.9592 60.0661 51.3088C59.7568 50.3867 59.6305 49.2699 60.186 48.4429C61.7077 48.8909 63.2101 53.2095 64.233 54.6357C64.3216 54.7561 64.4284 54.8948 64.5483 55.04Z" fill="#FF91B8"/>
<path d="M46.6906 50.8761C46.9465 50.8124 47.137 50.6035 47.306 50.4016C48.2339 49.2917 49.0188 48.0626 49.6358 46.754C49.7708 46.4679 49.8998 46.1689 49.9079 45.8531C49.9263 45.1729 49.4005 44.6163 48.9109 44.144C48.2631 44.9192 46.6469 47.567 46.4174 47.9125C46.0169 48.5165 45.5478 49.1913 45.3227 49.8872C45.1829 50.3174 45.3556 50.312 45.7275 50.5528C46.0153 50.739 46.3267 50.9663 46.6906 50.8761Z" fill="#FF91B8"/>
<path d="M57.6711 43.6532C57.7159 45.2306 57.7381 46.4706 57.7381 47.5151C57.7381 49.9589 57.6172 51.3317 57.3748 53.4726C57.1319 55.6135 56.7686 58.5161 56.286 63.9915C56.2762 64.0973 56.3551 64.1913 56.4609 64.2004C56.5667 64.2096 56.6601 64.1313 56.6698 64.0255C57.1518 58.5545 57.5146 55.6605 57.7575 53.5163C58.0004 51.3721 58.1235 49.9713 58.1235 47.5151C58.1235 46.4652 58.1008 45.2214 58.056 43.6424C58.0533 43.5361 57.9643 43.4519 57.8585 43.4551C57.7521 43.4584 57.6679 43.5469 57.6711 43.6532Z" fill="#111528"/>
<mask id="mask0_778_929" style="mask-type:luminance" maskUnits="userSpaceOnUse" x="41" y="12" width="15" height="13">
<path d="M55.1791 24.7031C54.5815 24.7031 53.7777 24.4494 53.4058 24.3674C50.1442 23.6499 47.1768 21.9274 44.5446 19.9192C43.6453 19.2326 42.7589 18.4919 42.1478 17.5397C41.5367 16.5869 41.2301 15.382 41.5745 14.3035C41.7446 13.7701 42.0776 13.28 42.5467 12.9734C42.9403 12.7159 43.3732 12.609 43.8213 12.609C44.8334 12.609 45.9222 13.1553 46.8027 13.7496C48.5954 14.9599 50.2484 16.3759 51.7248 17.9564C53.0063 19.3276 54.1551 20.8229 55.1473 22.4154C55.4609 22.9179 56.3996 23.9895 55.7675 24.5444C55.6358 24.6605 55.4247 24.7031 55.1791 24.7031Z" fill="white"/>
</mask>
<g mask="url(#mask0_778_929)">
<path d="M41.2295 24.7031H56.3991V12.609H41.2295V24.7031Z" fill="#FAB5D5"/>
</g>
<path d="M41.1525 32.6699C40.4728 32.6699 39.8006 32.5819 39.1869 32.3018C38.6722 32.0669 38.1967 31.6696 38.0301 31.1287C37.7625 30.2623 38.3512 29.3727 38.9811 28.7201C41.0704 26.557 43.9536 25.2647 46.9172 24.7502C48.0838 24.5478 49.2644 24.4598 50.4466 24.4598C51.4609 24.4598 52.4758 24.5246 53.4836 24.6363C54.2896 24.7259 55.8831 24.673 56.1104 25.6863C56.2912 26.4917 55.3449 27.3538 54.6739 27.8655C54.5676 27.9406 54.4602 28.0194 54.3517 28.1014C50.8072 30.6148 46.5998 32.1846 42.2753 32.6073C41.9045 32.6435 41.5271 32.6699 41.1525 32.6699Z" fill="#FAB5D5"/>
<path d="M49.314 41.5195C48.2273 41.5195 47.1439 41.0412 46.6472 40.0922C45.9946 38.8463 46.5236 37.3192 47.1941 36.083C48.271 34.0954 49.7015 32.3161 51.3421 30.7652C51.7766 30.355 53.11 29.0394 54.3521 28.1012C54.3613 28.0947 54.3705 28.0882 54.3796 28.0818C54.4671 28.0197 54.567 27.9468 54.6744 27.8653C55.3119 27.4135 55.9014 27.0955 56.2998 27.0955C56.3802 27.0955 56.4531 27.109 56.5173 27.1365C56.9665 27.3309 57.062 28.0494 56.9961 28.9109C56.7327 29.8286 56.5157 31 56.3392 32.1968C56.2998 32.3464 56.2663 32.4705 56.2436 32.5628C55.7179 34.6687 54.8957 36.7092 53.6843 38.5176C52.8752 39.7257 51.8344 40.868 50.4562 41.3349C50.0929 41.458 49.7032 41.5195 49.314 41.5195Z" fill="#FAB5D5"/>
<path d="M54.3525 28.1016C54.4612 28.0194 54.5687 27.9405 54.6751 27.8654C54.5676 27.947 54.4676 28.02 54.3801 28.0821C54.3709 28.0886 54.3617 28.0951 54.3525 28.1016Z" fill="#FBC4DB"/>
<path d="M63.252 26.3906C61.4684 26.3906 59.0554 26.2719 58.7337 25.5571C58.2138 24.4008 61.8161 22.2486 62.5923 21.732C64.3997 20.5303 66.3824 19.5765 68.4953 19.0566C69.2203 18.8779 69.9782 18.7538 70.7242 18.7538C71.4324 18.7538 72.1304 18.8661 72.7788 19.15C74.1116 19.733 75.127 21.2283 74.7567 22.6346C74.3993 23.9944 72.9796 24.7668 71.6511 25.2289C69.5161 25.9717 67.2602 26.3231 65.0032 26.3626C64.6912 26.368 64.032 26.3906 63.252 26.3906Z" fill="#FAB5D5"/>
<path d="M57.6961 25.3086C56.4486 25.3086 55.7646 21.2254 55.5676 20.3217C55.1066 18.2008 54.9403 16.0069 55.2254 13.8498C55.4165 12.4074 55.844 10.9229 56.8724 9.89401C57.5147 9.25216 58.4416 8.85485 59.3339 8.85485C59.8716 8.85485 60.3963 8.99899 60.8384 9.32126C61.9747 10.1499 62.1766 11.7531 62.1232 13.1583C62.0379 15.4175 61.5434 17.6464 60.7585 19.763C60.4017 20.725 58.8503 25.2519 57.7247 25.3081C57.715 25.3086 57.7058 25.3086 57.6961 25.3086Z" fill="#FAB5D5"/>
<path d="M70.9013 37.0859C69.9879 37.0859 69.0286 36.7151 68.1984 36.28C66.1957 35.2316 64.3959 33.8265 62.8223 32.2081C62.1071 31.4723 58.6873 28.1255 59.1197 27.0852C59.2789 26.703 59.8171 26.5686 60.5011 26.5686C61.91 26.5686 63.9387 27.1381 64.5497 27.2812C66.6626 27.7773 68.715 28.5708 70.5401 29.7552C71.7601 30.5476 72.9164 31.5727 73.4034 32.9434C73.8897 34.314 73.4941 36.077 72.2152 36.7701C71.8028 36.9931 71.358 37.0859 70.9013 37.0859Z" fill="#FAB5D5"/>
<path d="M59.2406 43.7637C58.8249 43.7637 58.4109 43.6843 58.0217 43.5364C57.9866 43.4867 57.9288 43.4544 57.864 43.4544C57.8619 43.4544 57.8603 43.4544 57.8586 43.4544C57.8484 43.4549 57.8392 43.4554 57.83 43.4576C57.2335 43.1909 56.7093 42.7618 56.3498 42.2155C55.5455 40.9917 55.6006 39.4111 55.7269 37.952C55.7836 37.2988 55.9725 34.6925 56.3396 32.1969C56.5404 31.4444 56.9096 30.0528 56.9965 28.911C57.308 27.8244 57.6843 27.0924 58.1334 27.0924C58.1609 27.0924 58.1885 27.0951 58.216 27.1005C59.3064 27.3153 60.7116 31.4185 61.0792 32.3637C61.8484 34.3427 62.371 36.4178 62.6236 38.5258C62.7516 39.5995 62.8029 40.7304 62.3656 41.7194C61.8684 42.8417 60.7289 43.6519 59.5051 43.7529C59.4171 43.7604 59.3291 43.7637 59.2406 43.7637Z" fill="#FAB5D5"/>
<path d="M58.0209 43.5371C57.9561 43.5128 57.8923 43.4863 57.8291 43.4582C57.8383 43.4561 57.8475 43.4555 57.8577 43.455C57.8594 43.455 57.861 43.455 57.8631 43.455C57.928 43.455 57.9858 43.4874 58.0209 43.5371Z" fill="#A583A0"/>
<path d="M56.3389 32.1973C56.5154 31.0005 56.7324 29.8291 56.9958 28.9114C56.9089 30.0531 56.5397 31.4448 56.3389 32.1973Z" fill="#FBC4DB"/>
<path d="M53.6838 23.5038C53.2438 23.676 52.7904 23.9206 52.5863 24.347C52.2144 25.1238 52.846 25.9994 53.4938 26.5668C55.3124 28.1581 57.6266 29.1741 60.0288 29.4359C60.6928 29.5082 61.3827 29.5212 62.0089 29.2885C62.6346 29.0553 63.1873 28.5328 63.2931 27.8731C63.569 26.1468 61.1419 24.4199 59.7713 23.7608C57.9257 22.8733 55.585 22.7599 53.6838 23.5038Z" fill="#F04140"/>
<path d="M93.345 61.3313C93.2592 61.8382 93.1625 62.3796 93.06 62.9545C92.9461 63.5759 92.8208 64.2253 92.6956 64.9146C91.8864 69.1592 90.7528 74.6459 89.3908 80.5824C87.8642 87.2427 86.0639 94.4725 84.1265 101.161C84.0752 101.338 84.0244 101.514 83.9726 101.691C83.876 102.033 83.7734 102.375 83.6709 102.711C83.4884 102.825 83.3059 102.933 83.124 103.035C83.4544 101.925 83.7848 100.797 84.1097 99.6516C84.2404 99.1955 84.3656 98.7392 84.4973 98.2841C86.1265 92.4391 87.6758 86.2229 89.0378 80.2807C90.3252 74.6627 91.4421 69.2845 92.2967 64.6922C92.3879 64.2426 92.4678 63.8037 92.5472 63.3767C92.6783 62.6474 92.8036 61.9402 92.9234 61.2627C92.9461 61.1429 93.06 61.0689 93.1739 61.0857C93.2878 61.1089 93.3677 61.2174 93.345 61.3313Z" fill="#111528"/>
<path d="M84.009 45.9001C82.8176 44.6882 81.1328 43.4898 79.5539 44.1181C78.9763 44.3475 78.5061 44.8075 78.2032 45.35C77.5916 46.4458 77.6596 47.8234 78.1136 48.9938C78.5682 50.1641 79.3682 51.1644 80.1946 52.1085C82.6136 54.8719 85.459 57.3982 88.8464 58.8973C89.3916 59.1386 90.7967 59.9419 91.3749 59.6104C92.1841 59.1467 91.3997 57.775 91.1698 57.1591C90.4421 55.2093 89.5233 53.3307 88.4329 51.5574C87.1756 49.5142 85.6906 47.6108 84.009 45.9001Z" fill="#FF91B8"/>
<path d="M81.7122 57.8852C78.3777 57.7907 74.9585 58.56 72.2108 60.4515C71.3822 61.0216 70.546 61.8588 70.6458 62.8602C70.7079 63.4848 71.1371 64.0208 71.645 64.3901C72.5843 65.0724 73.7795 65.2835 74.9347 65.4022C79.7408 65.8978 84.6736 65.1134 89.0888 63.1517C89.8786 62.8003 91.5213 61.99 91.4997 60.9287C91.4754 59.7778 89.7323 59.4836 88.8751 59.2089C86.5565 58.465 84.1522 57.9543 81.7122 57.8852Z" fill="#FF91B8"/>
<path d="M79.514 70.2658C78.5132 71.4626 77.6014 73.006 78.036 74.504C78.4851 76.0532 80.3027 76.8981 81.9033 76.6947C83.5033 76.4905 84.8869 75.4784 86.0329 74.3431C87.7474 72.6448 89.0921 70.6075 90.1275 68.4348C90.5723 67.5003 92.7747 63.3999 91.6211 62.5961C90.5955 61.8813 86.1614 64.7985 85.1951 65.4004C83.0698 66.7235 81.1232 68.343 79.514 70.2658Z" fill="#FF91B8"/>
<path d="M108.494 63.8563C110.04 63.6474 111.753 63.1211 112.441 61.7213C113.153 60.274 112.38 58.4252 111.06 57.4972C109.74 56.5692 108.036 56.3846 106.424 56.4516C104.013 56.5509 101.647 57.1506 99.4176 58.0586C98.4594 58.4489 94.0691 59.995 94.38 61.3661C94.6558 62.585 99.898 63.4174 101.018 63.6242C103.479 64.0776 106.009 64.1931 108.494 63.8563Z" fill="#FF91B8"/>
<path d="M100.797 48.6375C101.164 47.1217 101.299 45.3344 100.245 44.1835C99.1566 42.9932 97.1528 43.0407 95.8081 43.9319C94.4634 44.8232 93.6715 46.3428 93.1462 47.8683C92.3608 50.1506 92.0574 52.5723 92.0914 54.9793C92.106 56.0131 91.9468 60.6653 93.3368 60.8753C94.5724 61.0626 97.257 56.4833 97.8567 55.5159C99.176 53.3885 100.205 51.0743 100.797 48.6375Z" fill="#FF91B8"/>
<path d="M102.304 75.1076C103.514 76.0918 105.07 76.9814 106.562 76.5258C108.105 76.0545 108.924 74.225 108.697 72.6277C108.47 71.0304 107.439 69.6614 106.287 68.5315C104.565 66.8414 102.509 65.5264 100.321 64.5223C99.3815 64.0904 95.2492 61.9463 94.4621 63.1112C93.7625 64.1466 96.7423 68.5391 97.3577 69.4967C98.7111 71.6026 100.358 73.5265 102.304 75.1076Z" fill="#FF91B8"/>
<path d="M88.378 74.1781C87.9191 75.737 87.511 77.4423 88.1156 78.9507C88.6231 80.2144 89.8539 81.1574 91.2066 81.3172C92.5589 81.477 93.9759 80.8476 94.7641 79.7365C95.4577 78.759 95.651 77.518 95.7482 76.3228C95.9387 73.9756 95.8281 71.6047 95.4281 69.2846C95.237 68.1758 94.614 63.4049 93.4761 62.9314C91.7227 62.2016 88.805 72.727 88.378 74.1781Z" fill="#FF91B8"/>
<path d="M89.3428 58.0232C88.8262 58.1133 88.2794 58.279 87.963 58.6979C87.3881 59.4602 87.8815 60.5511 88.4607 61.3107C90.0867 63.4413 92.3788 65.0565 94.9327 65.87C95.6382 66.0951 96.3853 66.2608 97.1168 66.1464C97.8482 66.0314 98.5646 65.5844 98.8248 64.8908C99.5055 63.0748 97.2474 60.6623 95.9027 59.6442C94.0927 58.2731 91.5728 57.6334 89.3428 58.0232Z" fill="#F04140"/>
<path d="M84.2485 100.281C83.7351 97.2019 81.4063 94.8069 79.4505 92.3739C77.8581 90.3932 76.4394 88.2398 75.5708 85.8518C74.7023 83.4642 74.4097 80.8184 75.0688 78.3645C77.6546 79.6504 80.1394 80.7127 81.85 83.0388C82.7564 84.2711 83.3389 85.7141 83.7513 87.1862C84.974 91.5576 84.8973 95.7893 84.2485 100.281Z" fill="#111528"/>
<path d="M83.459 102.018C86.0113 100.221 89.3522 100.197 92.4578 99.8815C94.9858 99.6247 97.5154 99.1219 99.8258 98.064C102.136 97.0059 104.225 95.3562 105.51 93.1641C102.779 92.2257 100.277 91.2028 97.4193 91.618C95.9062 91.8377 94.4697 92.4358 93.132 93.1765C89.1611 95.375 86.2018 98.4008 83.459 102.018Z" fill="#111528"/>
<path d="M31.8818 103.6C31.7053 103.508 31.5286 103.412 31.3517 103.309C31.1524 102.58 30.9529 101.84 30.7537 101.105C30.5599 100.392 30.372 99.6745 30.1837 98.9565C29.0501 94.632 27.9962 90.2622 27.0447 86.109C25.6831 80.1724 24.5491 74.6863 23.7402 70.4417C23.6148 69.7518 23.4895 69.1024 23.3756 68.4816C23.2732 67.9121 23.1762 67.3706 23.0908 66.8637C23.0682 66.7439 23.1477 66.6359 23.2616 66.6132C23.3756 66.596 23.4895 66.6699 23.5125 66.7898C23.6318 67.4678 23.7573 68.1739 23.8884 68.9032C23.9682 69.3307 24.0479 69.769 24.1278 70.2193C24.9879 74.8109 26.1104 80.1897 27.3979 85.8125C28.6058 91.0774 29.9559 96.5522 31.3861 101.788V101.794C31.4259 101.948 31.4658 102.102 31.5115 102.249C31.54 102.363 31.5739 102.477 31.6026 102.591C31.6937 102.933 31.7907 103.269 31.8818 103.6Z" fill="#111528"/>
<path d="M32.4268 51.4272C33.6182 50.2153 35.3028 49.0164 36.8818 49.6447C37.4592 49.8747 37.9294 50.3341 38.2322 50.8766C38.8442 51.973 38.7763 53.3506 38.3218 54.5204C37.8674 55.6907 37.0676 56.691 36.2408 57.6357C33.8225 60.3985 30.9767 62.9254 27.5893 64.4245C27.0438 64.6658 25.6392 65.4696 25.061 65.1376C24.2517 64.6733 25.0359 63.3017 25.2658 62.6863C25.9934 60.7359 26.9126 58.8578 28.003 57.0845C29.2602 55.0413 30.745 53.1379 32.4268 51.4272Z" fill="#FF91B8"/>
<path d="M34.7235 63.412C38.0584 63.3181 41.4776 64.0868 44.2253 65.9789C45.0545 66.5495 45.8896 67.3856 45.7903 68.3876C45.7282 69.0116 45.299 69.5482 44.7911 69.9174C43.8518 70.5997 42.6566 70.8103 41.5014 70.9296C36.6951 71.4251 31.7627 70.6408 27.3469 68.6785C26.5572 68.3276 24.9146 67.5179 24.9367 66.4566C24.9603 65.3052 26.7038 65.011 27.5605 64.7357C29.8793 63.9918 32.2838 63.4811 34.7235 63.412Z" fill="#FF91B8"/>
<path d="M36.9219 75.7922C37.9227 76.988 38.8344 78.5314 38.4 80.0294C37.9509 81.5793 36.1332 82.424 34.533 82.2199C32.9324 82.0164 31.5492 81.0043 30.4029 79.8685C28.6881 78.1708 27.3443 76.133 26.3085 73.9602C25.864 73.0268 23.661 68.9258 24.8149 68.122C25.8402 67.4073 30.2743 70.3245 31.2406 70.9264C33.3658 72.2495 35.3132 73.8689 36.9219 75.7922Z" fill="#FF91B8"/>
<path d="M7.94205 69.3857C6.39616 69.1757 4.68288 68.6493 3.99439 67.2496C3.28204 65.8023 4.05593 63.954 5.37579 63.0255C6.69582 62.0981 8.39982 61.914 10.0117 61.9804C12.4232 62.0797 14.7889 62.6795 17.0182 63.5874C17.9762 63.9777 22.3667 65.5232 22.0561 66.8944C21.78 68.1138 16.5378 68.9457 15.4184 69.1525C12.9565 69.607 10.4263 69.7225 7.94205 69.3857Z" fill="#FF91B8"/>
<path d="M15.6391 54.1649C15.2713 52.6491 15.1376 50.8617 16.1903 49.7103C17.2792 48.52 19.2827 48.5675 20.6276 49.4588C21.9723 50.3505 22.7643 51.8701 23.2893 53.3957C24.075 55.6775 24.3783 58.0991 24.3443 60.5062C24.3298 61.5405 24.489 66.1927 23.0987 66.4026C21.8631 66.5894 19.1789 62.0101 18.579 61.0428C17.2594 58.9159 16.2304 56.6017 15.6391 54.1649Z" fill="#FF91B8"/>
<path d="M14.1326 80.6355C12.9221 81.6196 11.3661 82.5086 9.87443 82.0531C8.33129 81.5818 7.51292 79.753 7.73938 78.1556C7.96583 76.5584 8.99759 75.1892 10.149 74.0594C11.8715 72.3692 13.9277 71.0537 16.1153 70.0496C17.0551 69.6178 21.187 67.4741 21.9744 68.6391C22.6743 69.6745 19.6941 74.0665 19.079 75.0247C17.7254 77.1304 16.0785 79.055 14.1326 80.6355Z" fill="#FF91B8"/>
<path d="M28.0585 79.706C28.5174 81.2643 28.9259 82.9702 28.3209 84.478C27.8139 85.7417 26.5825 86.6843 25.2304 86.8445C23.8779 87.0044 22.4606 86.3749 21.6726 85.2645C20.9791 84.2858 20.7855 83.0453 20.6885 81.8495C20.4979 79.503 20.6084 77.1322 21.0086 74.8114C21.1997 73.7032 21.8226 68.9328 22.9604 68.4588C24.714 67.7285 27.6313 78.2544 28.0585 79.706Z" fill="#FF91B8"/>
<path d="M27.0946 63.5498C27.611 63.6405 28.1578 63.8062 28.4739 64.2251C29.0494 64.9868 28.5557 66.0783 27.9765 66.8379C26.3507 68.9685 24.0586 70.5831 21.5047 71.3972C20.7992 71.6217 20.0521 71.7886 19.3206 71.6736C18.5887 71.558 17.8726 71.1116 17.6124 70.4179C16.9316 68.602 19.1896 66.1901 20.5341 65.1714C22.3444 63.8003 24.8641 63.1606 27.0946 63.5498Z" fill="#F04140"/>
<path d="M31.3871 101.791C29.4283 99.3601 26.2238 98.4171 23.3252 97.2582C20.9656 96.315 18.6724 95.136 16.7432 93.4822C14.8139 91.8281 13.2598 89.6672 12.6289 87.2055C15.5127 87.0566 18.199 86.7618 20.8319 87.9477C22.2259 88.5761 23.4424 89.5467 24.5242 90.6275C27.7357 93.8345 29.747 97.5589 31.3871 101.791Z" fill="#111528"/>
<path d="M31.4072 102.965C32.7483 100.146 35.6469 98.4848 38.1974 96.685C40.2738 95.2201 42.2306 93.5405 43.7233 91.4844C45.2159 89.4278 46.2264 86.965 46.2691 84.4248C43.4291 84.949 40.7478 85.2857 38.4622 87.0504C37.2518 87.9848 36.2941 89.2112 35.4923 90.5133C33.1127 94.3779 32.0206 98.4677 31.4072 102.965Z" fill="#111528"/>
<path d="M38.8783 63.436C38.8787 63.4349 39.0122 63.1461 39.2502 62.6371C40.0829 60.8562 42.1893 56.394 44.2741 52.3054C45.316 50.2617 46.3535 48.3113 47.2221 46.8387C47.6561 46.1024 48.048 45.4853 48.3751 45.0389C48.5382 44.816 48.6855 44.6351 48.8108 44.5056C48.9344 44.3755 49.0407 44.2983 49.0953 44.2788C49.3943 44.1622 49.7155 44.1061 50.0475 44.1061C51.5353 44.1029 53.2238 45.2505 53.8344 47.0902C53.8619 47.1728 53.951 47.2176 54.0341 47.1901C54.1167 47.1626 54.1615 47.0735 54.1334 46.9904C53.4759 45.0254 51.6923 43.7935 50.0475 43.7903C49.6804 43.7903 49.3193 43.8529 48.9808 43.9846C48.8286 44.0462 48.6888 44.1714 48.5225 44.3517C47.9104 45.0254 47.0002 46.5304 45.9573 48.4301C42.8355 54.1214 38.5925 63.3016 38.5917 63.3032C38.5552 63.3826 38.5898 63.4765 38.6689 63.5127C38.748 63.5494 38.8418 63.5148 38.8783 63.436Z" fill="#111528"/>
<path d="M97.7006 40.6196L97.2401 32.9752L95.1337 40.2574L88.4551 39.6792L93.9445 42.6715L90.8335 49.8986L95.8296 44.3357L98.3916 52.0859L98.2523 43.2448L106.426 42.3082L97.7006 40.6196Z" fill="#FBBF4C"/>
<path d="M25.5499 43.1406L25.0896 35.4967L22.9833 42.7783L16.3047 42.2007L21.7942 45.193L18.6828 52.4201L23.6789 46.8572L26.241 54.6074L26.1018 45.7662L34.2759 44.8296L25.5499 43.1406Z" fill="#FBBF4C"/>
<path d="M59.3959 95.9926L58.9354 88.3482L56.8291 95.6303L50.1504 95.0523L55.6398 98.0446L52.5283 105.272L57.5244 99.7087L60.0869 107.459L59.9476 98.6173L68.1216 97.6813L59.3959 95.9926Z" fill="#FBBF4C"/>
<path d="M64.749 47.4644C64.749 47.4644 68.5969 46.8236 69.0903 45.7872C69.5842 44.7513 69.4854 40.7544 69.4854 40.7544C69.4854 40.7544 70.6201 44.2579 71.4093 45.1453C72.3324 46.1839 75.9978 46.1321 75.9978 46.1321C75.9978 46.1321 72.7022 46.7507 72.0507 47.9087C71.6069 48.6979 71.1626 51.757 71.3106 52.9414C71.3106 52.9414 70.2746 48.5996 69.1896 48.1554C68.1035 47.7111 64.749 47.4644 64.749 47.4644Z" fill="#CCB0AB"/>
<path d="M90.542 77.553C90.542 77.553 94.3947 78.1651 95.1915 77.3391C95.9883 76.5132 97.1618 72.6913 97.1618 72.6913C97.1618 72.6913 97.1273 76.3734 97.5942 77.4659C98.14 78.7431 101.633 79.8573 101.633 79.8573C101.633 79.8573 98.3111 79.3981 97.3265 80.2898C96.6549 80.8975 95.2633 83.6578 95.0284 84.8281C95.0284 84.8281 95.4225 80.3816 94.534 79.6167C93.6454 78.8511 90.542 77.553 90.542 77.553Z" fill="#CCB0AB"/>
<path d="M15.0947 82.0153C15.0947 82.0153 18.9477 82.6278 19.7444 81.8021C20.5408 80.9755 21.7145 77.1541 21.7145 77.1541C21.7145 77.1541 21.6797 80.8357 22.1468 81.9288C22.6929 83.206 26.1855 84.3202 26.1855 84.3202C26.1855 84.3202 22.8637 83.861 21.879 84.7521C21.2073 85.36 19.8163 88.1207 19.5811 89.291C19.5811 89.291 19.9755 84.8439 19.0869 84.079C18.1981 83.3136 15.0947 82.0153 15.0947 82.0153Z" fill="#CCB0AB"/>
</svg>
