<svg xmlns="http://www.w3.org/2000/svg" width="129" height="20" fill="none">
    <mask id="a" width="26" height="15" x="0" y="0" maskUnits="userSpaceOnUse" style="mask-type:alpha">
        <path fill="#34A853"
              d="M25.473 13.317a12.86 12.86 0 0 0-2.031-4.427 12.94 12.94 0 0 0-2.096-2.297 12.98 12.98 0 0 0-1.61-1.185l.014-.026.78-1.345.763-1.315.547-.944A1.185 1.185 0 0 0 19.792.59l-.547.944-.763 1.314-.78 1.346-.086.148-.118-.047a12.928 12.928 0 0 0-4.614-.845h-.133a12.934 12.934 0 0 0-4.574.882l-.08-.137-.78-1.346-.762-1.315L6.007.59A1.183 1.183 0 0 0 3.84.88a1.186 1.186 0 0 0 .12.898l.547.945.763 1.314.78 1.346.007.011a13.017 13.017 0 0 0-4.67 5.03 12.89 12.89 0 0 0-1.09 2.894C.079 14.204.796 15 1.709 15h22.349c.912 0 1.633-.797 1.415-1.683Z"/>
    </mask>
    <g mask="url(#a)">
        <path fill="#4FAF53" d="M25.913-.473H-1.592v15.476h27.505V-.474Z"/>
        <g filter="url(#b)">
            <path fill="url(#c)" fill-opacity=".4"
                  d="M12.362 5.355c2.608 2.07-4.741 2.3-7.582 6.815-2.84 4.514-.568 12.363-3.176 10.294-1.611-2.477-1.863-7.514.978-12.03 2.84-4.514 7.554-5.998 9.77-5.079h.01Z"/>
        </g>
        <g filter="url(#d)">
            <path fill="url(#e)" fill-opacity=".4"
                  d="M13.49 5.341c-2.74 1.956 4.983 2.173 7.968 6.44 2.985 4.266.597 11.683 3.338 9.728 1.693-2.341 1.957-7.101-1.028-11.368-2.985-4.267-7.938-5.669-10.268-4.8h-.01Z"/>
        </g>
        <g filter="url(#f)" opacity=".6">
            <path fill="#8BD8A0"
                  d="M-1.386 11.668c-1.047 3.295-1.586 6.064-1.204 6.185.382.121 1.54-2.45 2.588-5.745 1.047-3.294 5.366-6.886 4.984-7.007-.382-.122-5.32 3.273-6.368 6.567Z"/>
        </g>
        <g filter="url(#g)" opacity=".5">
            <path fill="#8BD8A0"
                  d="M25.966 11.368c1.047 3.294 1.586 6.063 1.204 6.184-.382.122-1.54-2.45-2.587-5.745-1.047-3.294-5.367-6.886-4.985-7.007.382-.121 5.32 3.274 6.368 6.568Z"/>
        </g>
        <g filter="url(#h)" opacity=".7">
            <path fill="#0D652D"
                  d="M4.904 2.584c1.036 1.703 1.49 2.515 1.34 2.607-.15.091-.849-.572-1.886-2.275-1.566-1.377.09-3.241.241-3.333.15-.092-1.237.744.305 3.001Z"/>
        </g>
        <g filter="url(#i)" opacity=".1">
            <path fill="#202124"
                  d="M6.044 5.368c.124-.08-.53-1.302-1.463-2.727C3.65 1.216 2.794.126 2.67.207c-.124.08.53 1.302 1.463 2.727C5.064 4.36 5.92 5.45 6.044 5.368Z"/>
        </g>
        <g filter="url(#j)" opacity=".3">
            <path fill="#fff"
                  d="M6.194 1.715c1.085 1.781 1.614 2.598 1.734 2.524.12-.073-.213-1.008-1.298-2.79-1.046-2.38-2.932-.96-2.746-.7.362.697.923-1.532 2.31.966Z"/>
        </g>
        <path fill="url(#k)" fill-opacity=".9"
              d="M2.841 1.076c.19.658.945 1.017 1.686.802.741-.214 1.188-.92.997-1.578-.19-.658-.945-1.017-1.686-.802-.74.214-1.187.92-.997 1.578Z"
              opacity=".15"/>
        <path fill="url(#l)" fill-opacity=".9"
              d="M20.127.904c.196.676 1 1.038 1.795.807.796-.23 1.282-.965 1.087-1.641-.196-.676-1-1.038-1.795-.807-.796.23-1.282.965-1.087 1.641Z"
              opacity=".15"/>
        <g filter="url(#m)" opacity=".1">
            <path fill="#202124"
                  d="M19.659 5.461c-.126-.079.51-1.31 1.418-2.75.909-1.44 1.747-2.544 1.872-2.465.125.079-.51 1.31-1.419 2.75-.908 1.44-1.746 2.544-1.872 2.465Z"/>
        </g>
        <mask id="n" width="5" height="4" x="17" y="2" maskUnits="userSpaceOnUse" style="mask-type:alpha">
            <path fill="#000"
                  d="M19.859 5.483c-.61-.38-2.004-1.034-2.625-1.313l.41-1.451 4.008 1.612c-.344.543-1.183 1.533-1.793 1.152Z"/>
        </mask>
        <g mask="url(#n)">
            <g filter="url(#o)" opacity=".3" style="mix-blend-mode:multiply">
                <path fill="#0D652D"
                      d="M20.267 5.271c-1.091-.461-2.023-.725-2.08-.589-.058.137.77.52 1.861.982 1.092.461 2.034.826 2.092.69.057-.137-.781-.621-1.873-1.083Z"/>
            </g>
            <g filter="url(#p)" opacity=".3" style="mix-blend-mode:screen">
                <path fill="#81C995"
                      d="M18.03 4.4c-.304-.149-.575-.222-.604-.163-.029.06.2.187.503.337.304.15.57.264.599.205.029-.06-.194-.23-.498-.379Z"/>
            </g>
        </g>
        <mask id="q" width="6" height="4" x="3" y="2" maskUnits="userSpaceOnUse" style="mask-type:alpha">
            <path fill="#000"
                  d="M5.779 5.604C6.38 5.211 7.76 4.53 8.376 4.237l-.44-1.442-3.973 1.694c.354.536 1.214 1.508 1.816 1.115Z"/>
        </mask>
        <g mask="url(#q)">
            <g filter="url(#r)" opacity=".3" style="mix-blend-mode:multiply">
                <path fill="#0D652D"
                      d="M5.366 5.392c1.082-.484 2.008-.767 2.069-.632.06.135-.76.536-1.842 1.02s-2.016.868-2.076.733c-.06-.135.767-.637 1.85-1.121Z"/>
            </g>
            <g filter="url(#s)" opacity=".3" style="mix-blend-mode:screen">
                <path fill="#81C995"
                      d="M7.579 4.478c.3-.156.57-.234.6-.175.03.059-.195.19-.496.346-.301.156-.564.276-.594.217-.03-.058.189-.232.49-.388Z"/>
            </g>
        </g>
        <g filter="url(#t)" opacity=".7">
            <path fill="#0D652D"
                  d="M20.934 2.655c-.997 1.726-1.432 2.549-1.28 2.637.154.088.836-.591 1.833-2.318 1.534-1.413-.166-3.239-.319-3.327-.152-.088 1.254.716-.234 3.008Z"/>
        </g>
        <g filter="url(#u)" opacity=".3">
            <path fill="#fff"
                  d="M19.562 1.811C18.547 3.57 18.049 4.374 17.92 4.3c-.128-.074.162-1 1.177-2.757 1.156-3.053 3.448-2.65 3.072-.98-.296.685-1.324-1.217-2.608 1.248Z"/>
        </g>
        <path fill="url(#v)" fill-opacity=".7"
              d="M7.935 9.667c.166-.188.026-.587-.313-.892-.34-.305-.749-.4-.915-.211-.166.188-.026.587.313.892.34.305.749.4.915.211Z"/>
        <path fill="url(#w)" fill-opacity=".7"
              d="M19.225 9.475c.34-.305.48-.704.313-.892-.166-.189-.575-.094-.914.21-.34.306-.48.705-.313.893.166.189.575.094.914-.21Z"/>
        <path fill="#011B04"
              d="M7.798 10.919c.412-1.027-.02-1.66-.287-1.856-.771-.954-1.81-.218-2.117.197-.309.404-.761 1.13-.319 2.126.442.995 2.21.819 2.723-.467ZM18.455 10.942c-.411-1.016.02-1.66.288-1.846.77-.954 1.808-.218 2.117.197.308.404.76 1.13.318 2.116-.442.985-2.21.819-2.723-.457v-.01Z"
              opacity=".09"/>
        <path fill="#202124"
              d="M20.779 11.644c.637-.425.74-1.41.226-2.188-.514-.778-1.45-1.058-2.086-.633-.637.426-.74 1.41-.226 2.188.513.778 1.449 1.058 2.086.633Z"/>
        <path fill="#000"
              d="M7.552 10.98c.514-.778.422-1.743-.205-2.168-.627-.414-1.542-.124-2.056.643-.514.778-.421 1.742.206 2.168.627.414 1.541.124 2.055-.643ZM18.694 10.991c-.514-.777-.422-1.742.205-2.167.627-.415 1.542-.124 2.056.643.514.778.421 1.742-.206 2.167-.627.415-1.541.125-2.055-.643Z"/>
        <path fill="#000"
              d="M5.476 9.363c-.493.602-.545 1.317-.483 1.618-.123-.591-.082-1.162.39-1.742.257-.322.658-.498.946-.581.041-.01.093-.02.123-.031a.688.688 0 0 1 .175-.031c-.051.01-.113.02-.175.03-.04 0-.082.022-.123.032-.206.073-.483.228-.863.705h.01Z"/>
        <path fill="url(#x)"
              d="M7.687 9.51c-.205-.861-.894-.944-1.212-.882.277-.125.77.03.986.28.165.197.226.487.237.612l-.01-.01Z"
              opacity=".8"/>
        <path fill="url(#y)"
              d="M19.495 8.781c-.73.041-.966.622-.997.902.072-.176.34-.54.802-.632.462-.083 1.069.445 1.315.725l.226-.259c-.144-.27-.616-.788-1.346-.736Z"/>
        <path fill="#000"
              d="M20.768 9.383c.494.601.545 1.317.483 1.617.124-.59.082-1.161-.39-1.742-.257-.321-.658-.498-.946-.58-.04-.01-.092-.021-.123-.032a.687.687 0 0 0-.175-.03c.052.01.113.02.175.03.041 0 .082.021.123.031.206.073.483.229.864.706h-.01Z"/>
        <path fill="#E2DCE1"
              d="M6.122 9.139c-.288.062-.504.363-.565.508l.144.218s.102-.177.215-.29c.113-.115.288-.24.36-.291l-.144-.145h-.01ZM20.132 9.146c.278.052.493.343.565.488l-.143.207s-.103-.166-.216-.28c-.113-.114-.278-.228-.35-.28l.144-.135Z"
              opacity=".8"/>
        <g fill="#E2DCE1" opacity=".8">
            <path d="M7.294 10.693c-.134.073-.35.177-.442.218l-.082.249c.215-.073.37-.197.431-.249l.093-.218ZM7.725 9.603a1.633 1.633 0 0 0-.082-.218v.093c.04.073.072.207.082.27 0-.021.02-.083 0-.156v.01Z"/>
        </g>
        <g fill="#E2DCE1" opacity=".8">
            <path d="M18.93 10.715c.133.072.35.176.442.218l.082.248a1.346 1.346 0 0 1-.432-.248l-.092-.218ZM18.507 9.624c.02-.073.062-.176.082-.218V9.5a1.004 1.004 0 0 0-.082.27c0-.022-.02-.084 0-.156v.01Z"/>
        </g>
    </g>
    <path fill="#202124"
          d="M35.876 0c4.557 0 8.159 3.399 8.159 7.662s-3.602 7.682-8.159 7.682h-4.108V0h4.108Zm-1.713 13.104h1.713c3.291 0 5.745-2.338 5.745-5.442S39.166 2.24 35.876 2.24h-1.713v10.864Zm10.943-2.672c0 2.928 2.2 5.226 5.14 5.226 2.376 0 3.759-1.473 4.323-2.318l-1.772-1.198c-.584.883-1.401 1.473-2.55 1.473-1.344 0-2.493-1.061-2.785-2.495H54.9c.04-.236.059-.491.059-.727 0-2.927-1.947-5.187-4.849-5.187-2.901 0-5.004 2.26-5.004 5.226Zm2.395-1.021c.292-1.277 1.207-2.161 2.61-2.161 1.401 0 2.317.884 2.609 2.16H47.5Zm7.419-3.89 3.602 9.823h2.629l3.602-9.823h-2.336l-2.532 7.347h-.097l-2.531-7.347H54.92Zm9.775 4.911c0 2.928 2.2 5.226 5.14 5.226 2.376 0 3.759-1.473 4.323-2.318l-1.772-1.198c-.584.883-1.402 1.473-2.55 1.473-1.344 0-2.493-1.061-2.785-2.495h7.438c.04-.236.059-.491.059-.727 0-2.927-1.947-5.187-4.849-5.187-2.901 0-5.004 2.26-5.004 5.226Zm2.395-1.021c.292-1.277 1.207-2.161 2.61-2.161 1.401 0 2.316.884 2.608 2.16H67.09Zm8.607 5.933h2.239V0h-2.24v15.344Zm3.388-4.951c0 2.947 2.297 5.265 5.218 5.265s5.219-2.318 5.219-5.265c0-2.947-2.259-5.187-5.219-5.187-2.96 0-5.218 2.26-5.218 5.187Zm2.278 0c0-1.768 1.285-3.143 2.94-3.143 1.656 0 2.94 1.375 2.94 3.143 0 1.768-1.304 3.222-2.94 3.222-1.635 0-2.94-1.434-2.94-3.222ZM90.671 20h2.239v-5.462h.097c.584.708 1.597 1.12 2.727 1.12 2.687 0 4.926-2.377 4.926-5.206 0-2.83-2.259-5.246-4.926-5.246-1.11 0-2.123.452-2.727 1.199h-.097V5.52h-2.24V20Zm2.083-9.548c0-1.827 1.188-3.202 2.765-3.202 1.578 0 2.863 1.414 2.863 3.202s-1.266 3.163-2.863 3.163-2.765-1.356-2.765-3.163Zm8.938-.02c0 2.928 2.2 5.226 5.141 5.226 2.375 0 3.758-1.473 4.322-2.318l-1.772-1.198c-.584.883-1.402 1.473-2.55 1.473-1.344 0-2.493-1.061-2.785-2.495h7.438c.039-.236.059-.491.059-.727 0-2.927-1.947-5.187-4.849-5.187-2.901 0-5.004 2.26-5.004 5.226Zm2.395-1.021c.292-1.277 1.207-2.161 2.609-2.161s2.317.884 2.61 2.16h-5.219Zm8.548 5.933h2.24v-5.147c0-2.044 1.071-2.947 2.862-2.947.331 0 .584.02.818.078V5.344c-.234-.079-.643-.138-1.091-.138-3.037 0-4.829 1.926-4.829 4.99v5.148Zm6.309-2.633c.175 1.71 1.947 2.947 4.187 2.947 2.356 0 3.875-1.218 3.875-3.124 0-1.591-.916-2.495-2.96-2.907l-1.363-.275c-.818-.158-1.246-.55-1.246-1.16 0-.766.603-1.257 1.557-1.257 1.071 0 1.772.53 1.928 1.513l2.006-.472c-.292-1.67-1.87-2.77-3.934-2.77-2.239 0-3.758 1.238-3.758 3.085 0 1.513 1.032 2.593 2.863 2.966l1.363.275c.934.197 1.363.57 1.363 1.219 0 .726-.643 1.198-1.694 1.198-1.208 0-1.986-.629-2.181-1.69l-2.006.452Z"/>
    <defs>
        <filter id="b" width="14.5" height="19.709" x="-.588" y="4.096" color-interpolation-filters="sRGB"
                filterUnits="userSpaceOnUse">
            <feFlood flood-opacity="0" result="BackgroundImageFix"/>
            <feBlend in="SourceGraphic" in2="BackgroundImageFix" result="shape"/>
            <feGaussianBlur result="effect1_foregroundBlur_13608_80097" stdDeviation=".5"/>
        </filter>
        <filter id="d" width="15.137" height="18.734" x="11.912" y="4.096" color-interpolation-filters="sRGB"
                filterUnits="userSpaceOnUse">
            <feFlood flood-opacity="0" result="BackgroundImageFix"/>
            <feBlend in="SourceGraphic" in2="BackgroundImageFix" result="shape"/>
            <feGaussianBlur result="effect1_foregroundBlur_13608_80097" stdDeviation=".5"/>
        </filter>
        <filter id="f" width="45.352" height="50.393" x="-21.529" y="-13.719" color-interpolation-filters="sRGB"
                filterUnits="userSpaceOnUse">
            <feFlood flood-opacity="0" result="BackgroundImageFix"/>
            <feBlend in="SourceGraphic" in2="BackgroundImageFix" result="shape"/>
            <feGaussianBlur result="effect1_foregroundBlur_13608_80097" stdDeviation="9.408"/>
        </filter>
        <filter id="g" width="45.352" height="50.393" x=".758" y="-14.02" color-interpolation-filters="sRGB"
                filterUnits="userSpaceOnUse">
            <feFlood flood-opacity="0" result="BackgroundImageFix"/>
            <feBlend in="SourceGraphic" in2="BackgroundImageFix" result="shape"/>
            <feGaussianBlur result="effect1_foregroundBlur_13608_80097" stdDeviation="9.408"/>
        </filter>
        <filter id="h" width="52.759" height="55.8" x="-21.399" y="-25.512" color-interpolation-filters="sRGB"
                filterUnits="userSpaceOnUse">
            <feFlood flood-opacity="0" result="BackgroundImageFix"/>
            <feBlend in="SourceGraphic" in2="BackgroundImageFix" result="shape"/>
            <feGaussianBlur result="effect1_foregroundBlur_13608_80097" stdDeviation="12.544"/>
        </filter>
        <filter id="i" width="15.949" height="17.714" x="-3.618" y="-6.069" color-interpolation-filters="sRGB"
                filterUnits="userSpaceOnUse">
            <feFlood flood-opacity="0" result="BackgroundImageFix"/>
            <feBlend in="SourceGraphic" in2="BackgroundImageFix" result="shape"/>
            <feGaussianBlur result="effect1_foregroundBlur_13608_80097" stdDeviation="3.136"/>
        </filter>
        <filter id="j" width="41.713" height="41.785" x="-14.945" y="-18.725" color-interpolation-filters="sRGB"
                filterUnits="userSpaceOnUse">
            <feFlood flood-opacity="0" result="BackgroundImageFix"/>
            <feBlend in="SourceGraphic" in2="BackgroundImageFix" result="shape"/>
            <feGaussianBlur result="effect1_foregroundBlur_13608_80097" stdDeviation="9.408"/>
        </filter>
        <filter id="m" width="15.867" height="17.767" x="13.37" y="-6.03" color-interpolation-filters="sRGB"
                filterUnits="userSpaceOnUse">
            <feFlood flood-opacity="0" result="BackgroundImageFix"/>
            <feBlend in="SourceGraphic" in2="BackgroundImageFix" result="shape"/>
            <feGaussianBlur result="effect1_foregroundBlur_13608_80097" stdDeviation="3.136"/>
        </filter>
        <filter id="o" width="29.048" height="26.825" x="5.639" y="-7.898" color-interpolation-filters="sRGB"
                filterUnits="userSpaceOnUse">
            <feFlood flood-opacity="0" result="BackgroundImageFix"/>
            <feBlend in="SourceGraphic" in2="BackgroundImageFix" result="shape"/>
            <feGaussianBlur result="effect1_foregroundBlur_13608_80097" stdDeviation="6.272"/>
        </filter>
        <filter id="p" width="16.159" height="15.631" x="9.897" y="-3.31" color-interpolation-filters="sRGB"
                filterUnits="userSpaceOnUse">
            <feFlood flood-opacity="0" result="BackgroundImageFix"/>
            <feBlend in="SourceGraphic" in2="BackgroundImageFix" result="shape"/>
            <feGaussianBlur result="effect1_foregroundBlur_13608_80097" stdDeviation="3.763"/>
        </filter>
        <filter id="r" width="29.012" height="26.903" x="-9.031" y="-7.818" color-interpolation-filters="sRGB"
                filterUnits="userSpaceOnUse">
            <feFlood flood-opacity="0" result="BackgroundImageFix"/>
            <feBlend in="SourceGraphic" in2="BackgroundImageFix" result="shape"/>
            <feGaussianBlur result="effect1_foregroundBlur_13608_80097" stdDeviation="6.272"/>
        </filter>
        <filter id="s" width="16.149" height="15.651" x="-.441" y="-3.243" color-interpolation-filters="sRGB"
                filterUnits="userSpaceOnUse">
            <feFlood flood-opacity="0" result="BackgroundImageFix"/>
            <feBlend in="SourceGraphic" in2="BackgroundImageFix" result="shape"/>
            <feGaussianBlur result="effect1_foregroundBlur_13608_80097" stdDeviation="3.763"/>
        </filter>
        <filter id="t" width="52.675" height="55.835" x="-5.464" y="-25.448" color-interpolation-filters="sRGB"
                filterUnits="userSpaceOnUse">
            <feFlood flood-opacity="0" result="BackgroundImageFix"/>
            <feBlend in="SourceGraphic" in2="BackgroundImageFix" result="shape"/>
            <feGaussianBlur result="effect1_foregroundBlur_13608_80097" stdDeviation="12.544"/>
        </filter>
        <filter id="u" width="41.951" height="42.662" x="-.924" y="-19.541" color-interpolation-filters="sRGB"
                filterUnits="userSpaceOnUse">
            <feFlood flood-opacity="0" result="BackgroundImageFix"/>
            <feBlend in="SourceGraphic" in2="BackgroundImageFix" result="shape"/>
            <feGaussianBlur result="effect1_foregroundBlur_13608_80097" stdDeviation="9.408"/>
        </filter>
        <radialGradient id="k" cx="0" cy="0" r="1" gradientTransform="matrix(-.84092 .25202 -.1907 -.6363 4.183 .688)"
                        gradientUnits="userSpaceOnUse">
            <stop stop-color="#fff"/>
            <stop offset=".948" stop-color="#fff" stop-opacity="0"/>
        </radialGradient>
        <radialGradient id="l" cx="0" cy="0" r="1" gradientTransform="matrix(-.9032 .27028 -.19586 -.6545 21.568 .487)"
                        gradientUnits="userSpaceOnUse">
            <stop stop-color="#fff"/>
            <stop offset=".948" stop-color="#fff" stop-opacity="0"/>
        </radialGradient>
        <radialGradient id="v" cx="0" cy="0" r="1" gradientTransform="rotate(132.973 2 6.361) scale(.35379 .644)"
                        gradientUnits="userSpaceOnUse">
            <stop stop-color="#93E19F"/>
            <stop offset="1" stop-color="#93E19F" stop-opacity="0"/>
        </radialGradient>
        <radialGradient id="w" cx="0" cy="0" r="1" gradientTransform="rotate(47.027 -.912 26.48) scale(.35348 .64369)"
                        gradientUnits="userSpaceOnUse">
            <stop stop-color="#93E19F"/>
            <stop offset="1" stop-color="#93E19F" stop-opacity="0"/>
        </radialGradient>
        <linearGradient id="c" x1="2.442" x2="6.361" y1="10.32" y2="12.778" gradientUnits="userSpaceOnUse">
            <stop stop-color="#A8F0B9"/>
            <stop offset=".807" stop-color="#ADEEBC" stop-opacity="0"/>
        </linearGradient>
        <linearGradient id="e" x1="23.915" x2="20.055" y1="10.032" y2="12.726" gradientUnits="userSpaceOnUse">
            <stop offset=".292" stop-color="#A8F0B9"/>
            <stop offset=".828" stop-color="#ADEEBC" stop-opacity="0"/>
        </linearGradient>
        <linearGradient id="x" x1="7.05" x2="7.102" y1="8.265" y2="9.478" gradientUnits="userSpaceOnUse">
            <stop stop-color="#E2DDE2"/>
            <stop offset="1" stop-color="#E2DDE2" stop-opacity="0"/>
        </linearGradient>
        <linearGradient id="y" x1="19.67" x2="19.67" y1="8.781" y2="9.776" gradientUnits="userSpaceOnUse">
            <stop stop-color="#373637"/>
            <stop offset="1" stop-color="#373637" stop-opacity="0"/>
        </linearGradient>
    </defs>
</svg>
